<svg id="Шар_1" data-name="Шар 1" xmlns="http://www.w3.org/2000/svg" xmlns:xlink="http://www.w3.org/1999/xlink" viewBox="0 0 38.88 40"><defs><style>.cls-1{fill:url(#Градієнт_без_назви_3);}.cls-2{fill:url(#Градієнт_без_назви_2);}.cls-3{fill:#fff;}</style><linearGradient id="Градієнт_без_назви_3" x1="30.02" y1="15.62" x2="20.02" y2="34.34" gradientTransform="matrix(1, 0, 0, -1, 0, 40.11)" gradientUnits="userSpaceOnUse"><stop offset="0" stop-color="#010101"/><stop offset="0.49" stop-color="#fff"/><stop offset="1" stop-color="#fff"/></linearGradient><linearGradient id="Градієнт_без_назви_2" x1="8.89" y1="24.64" x2="18.93" y2="5.9" gradientTransform="matrix(1, 0, 0, -1, 0, 40.11)" gradientUnits="userSpaceOnUse"><stop offset="0" stop-color="#0c0d0d"/><stop offset="0.49" stop-color="#fff"/><stop offset="1" stop-color="#fff"/></linearGradient></defs><title>logo</title><path class="cls-1" d="M34.6,23.2,26.17,3.88,24.33,2.61l-2.16-.69-2.92-.78L15.83,2.61,13.55,3.88,22.17,23.2Z"/><path class="cls-2" d="M4.33,16.74l8.44,19.37,1.83,1.28,2.16.69,2.92.78,3.42-1.47,2.29-1.28L16.76,16.74Z"/><path class="cls-3" d="M13.09,4.14,0,23.06l13.09.14L22.56,4.14c.67-1.95,2.74-.82,3.7,0C22.17-3.35,15.78,1,13.09,4.14Z"/><path class="cls-3" d="M25.79,35.86,38.88,16.94,25.79,16.8,16.32,35.86c-.66,2-2.74.82-3.7,0C16.71,43.35,23.1,39,25.79,35.86Z"/></svg>