<svg xmlns="http://www.w3.org/2000/svg" width="19" height="19" fill="none"><path fill="url(#a)" d="m16.701 11.022-4.006-9.178-.874-.605-1.024-.326L9.411.54l-1.626.699-1.085.605 4.097 9.178h5.904Z"/><path fill="url(#b)" d="m2.323 7.954 4.007 9.198.873.607 1.024.327 1.386.374 1.627-.7 1.084-.608-4.097-9.199H2.323Z"/><path fill="#fff" d="m6.486 1.965-6.22 8.99 6.22.067 4.496-9.057c.316-.927 1.304-.386 1.758 0-1.942-3.558-4.979-1.483-6.254 0ZM12.514 17.035l6.22-8.99-6.22-.067-4.496 9.057c-.316.927-1.304.387-1.758 0 1.942 3.558 4.979 1.483 6.254 0Z"/><defs><linearGradient id="a" x1="15.665" x2="10.914" y1="11.022" y2="2.133" gradientUnits="userSpaceOnUse"><stop/><stop offset=".495" stop-color="#fff"/><stop offset="1" stop-color="#fff"/></linearGradient><linearGradient id="b" x1="3.359" x2="8.128" y1="7.954" y2="16.854" gradientUnits="userSpaceOnUse"><stop stop-color="#0C0C0C"/><stop offset=".495" stop-color="#fff"/><stop offset="1" stop-color="#fff"/></linearGradient></defs></svg>