<svg xmlns="http://www.w3.org/2000/svg" version="1.1" xmlns:xlink="http://www.w3.org/1999/xlink" xmlns:svgjs="http://svgjs.com/svgjs" width="1000" height="1000"><rect width="1000" height="1000" rx="250" ry="250" fill="#aa952c"></rect><g transform="matrix(16,0,0,16,99.99981760978699,99.99989986419678)"><svg xmlns="http://www.w3.org/2000/svg" version="1.1" xmlns:xlink="http://www.w3.org/1999/xlink" xmlns:svgjs="http://svgjs.com/svgjs" width="50" height="50"><svg width="50" height="50" viewBox="0 0 50 50" fill="none" xmlns="http://www.w3.org/2000/svg">
<path d="M43.9513 29.0057L33.4077 4.85443L31.1088 3.26068L28.4134 2.40252L24.7668 1.42175L20.486 3.26068L17.6321 4.85443L28.4134 29.0057H43.9513Z" fill="url(#paint0_linear_74_1181)"></path>
<path d="M6.1132 20.9297L16.6567 45.1375L18.9557 46.735L21.651 47.5952L25.2977 48.5782L29.5785 46.735L32.4324 45.1375L21.651 20.9297L6.1132 20.9297Z" fill="url(#paint1_linear_74_1181)"></path>
<path d="M17.0682 5.17001L0.699824 28.8298L17.0682 29.0052L28.9005 5.17001C29.7312 2.73162 32.3306 4.15401 33.5264 5.17001C28.4158 -4.19337 20.4248 1.2686 17.0682 5.17001Z" fill="white"></path>
<path d="M32.9318 44.83L49.3002 21.1702L32.9318 20.9948L21.0995 44.83C20.2688 47.2684 17.6694 45.846 16.4736 44.83C21.5842 54.1934 29.5752 48.7314 32.9318 44.83Z" fill="white"></path>
<defs>
<linearGradient id="paint0_linear_74_1181" x1="41.2245" y1="29.0057" x2="28.7204" y2="5.613" gradientUnits="userSpaceOnUse">
<stop></stop>
<stop offset="0.494792" stop-color="white"></stop>
<stop offset="1" stop-color="white"></stop>
</linearGradient>
<linearGradient id="paint1_linear_74_1181" x1="8.83996" y1="20.9297" x2="21.3897" y2="44.3528" gradientUnits="userSpaceOnUse">
<stop stop-color="#0C0C0C"></stop>
<stop offset="0.494792" stop-color="white"></stop>
<stop offset="1" stop-color="white"></stop>
</linearGradient>
</defs>
</svg></svg></g></svg>